<svg width="42" height="42" viewBox="0 0 42 42" fill="none" xmlns="http://www.w3.org/2000/svg">
<g filter="url(#filter0_i_55_14743)">
<path d="M21 42C32.598 42 42 32.598 42 21C42 9.40202 32.598 0 21 0C9.40202 0 0 9.40202 0 21C0 32.598 9.40202 42 21 42Z" fill="white"/>
<path d="M19 33H23V29H19V33ZM21 1C18.3736 1 15.7728 1.51732 13.3463 2.52241C10.9198 3.5275 8.71504 5.00069 6.85786 6.85786C3.10714 10.6086 1 15.6957 1 21C1 26.3043 3.10714 31.3914 6.85786 35.1421C8.71504 36.9993 10.9198 38.4725 13.3463 39.4776C15.7728 40.4827 18.3736 41 21 41C26.3043 41 31.3914 38.8929 35.1421 35.1421C38.8929 31.3914 41 26.3043 41 21C41 18.3736 40.4827 15.7728 39.4776 13.3463C38.4725 10.9198 36.9993 8.71504 35.1421 6.85786C33.285 5.00069 31.0802 3.5275 28.6537 2.52241C26.2272 1.51732 23.6264 1 21 1ZM21 37C12.18 37 5 29.82 5 21C5 12.18 12.18 5 21 5C29.82 5 37 12.18 37 21C37 29.82 29.82 37 21 37ZM21 9C18.8783 9 16.8434 9.84285 15.3431 11.3431C13.8429 12.8434 13 14.8783 13 17H17C17 15.9391 17.4214 14.9217 18.1716 14.1716C18.9217 13.4214 19.9391 13 21 13C22.0609 13 23.0783 13.4214 23.8284 14.1716C24.5786 14.9217 25 15.9391 25 17C25 21 19 20.5 19 27H23C23 22.5 29 22 29 17C29 14.8783 28.1571 12.8434 26.6569 11.3431C25.1566 9.84285 23.1217 9 21 9Z" fill="#13819C"/>
</g>
<defs>
<filter id="filter0_i_55_14743" x="0" y="0" width="42" height="42" filterUnits="userSpaceOnUse" color-interpolation-filters="sRGB">
<feFlood flood-opacity="0" result="BackgroundImageFix"/>
<feBlend mode="normal" in="SourceGraphic" in2="BackgroundImageFix" result="shape"/>
<feColorMatrix in="SourceAlpha" type="matrix" values="0 0 0 0 0 0 0 0 0 0 0 0 0 0 0 0 0 0 127 0" result="hardAlpha"/>
<feOffset/>
<feGaussianBlur stdDeviation="1.35"/>
<feComposite in2="hardAlpha" operator="arithmetic" k2="-1" k3="1"/>
<feColorMatrix type="matrix" values="0 0 0 0 0.7375 0 0 0 0 0.7375 0 0 0 0 0.7375 0 0 0 1 0"/>
<feBlend mode="normal" in2="shape" result="effect1_innerShadow_55_14743"/>
</filter>
</defs>
</svg>
