<svg width="546" height="530" viewBox="0 0 546 530" fill="none" xmlns="http://www.w3.org/2000/svg">
<path d="M426.507 88.295C425.616 84.6877 423.98 81.3065 421.706 78.3681C419.431 75.4298 416.568 72.9992 413.299 71.2322C406.411 67.472 396.805 62.29 386.82 56.95C363.437 44.4688 354.148 38.8127 334.81 27.1215C324.066 20.6439 304.381 6.04565 304.381 6.04565C304.381 6.04565 311.301 23.5825 312.502 27.469C325.678 69.7787 397.816 298.99 397.816 298.99L489.797 343.227L426.507 88.295Z" fill="url(#paint0_linear_1249_2)"/>
<path d="M137.135 439.98C142.791 452.461 149.458 454.073 157.326 458.307C170.724 465.543 220.838 490.6 236.985 499.384C235.152 475.97 187.723 289.985 172.24 251.277C167.627 248.339 9.195 169.976 0 166.279C4.42371 174.305 38.7075 235.952 77.8573 317.443C106.927 378.08 137.135 439.98 137.135 439.98Z" fill="url(#paint1_linear_1249_2)"/>
<path d="M291.807 422.443C281.948 423.612 276.008 422.633 272.058 412.364C260.367 382.914 214.739 264.864 206.65 244.705C204.533 239.428 199.857 240.724 197.455 242.019C188.924 246.569 175.811 252.51 166.173 248.592C181.277 292.829 195.243 340.226 213.791 407.94C224.408 446.679 228.674 468.829 234.077 497.868C247.759 505.735 275.913 521.345 285.961 526.906C288.369 528.257 291.044 529.066 293.797 529.276C297.892 529.592 301.979 528.584 305.457 526.401C315.568 520.081 336.834 506.873 341.668 503.934C362.365 491.295 405.054 468.008 428.373 455.116C482.089 425.477 545.98 389.771 545.98 389.771C545.98 389.771 532.867 394.226 481.489 400.672C409.92 409.646 301.286 421.337 291.807 422.443ZM281.032 427.278C281.632 427.278 282.264 427.278 282.928 427.278C282.327 427.278 281.759 427.278 281.158 427.278H281.032Z" fill="url(#paint2_linear_1249_2)"/>
<path d="M68.7589 144.287C60.3065 146.487 51.9833 149.156 43.8281 152.282C37.5085 154.873 29.8302 163.657 44.1757 171.936C73.151 188.651 149.997 224.388 168.577 230.708C172.198 232.234 176.234 232.464 180.005 231.359C183.776 230.254 187.05 227.881 189.273 224.641C210.254 191.969 259.452 94.7418 259.452 94.7418C259.452 94.7418 122.981 129.942 68.7589 144.287Z" fill="url(#paint3_linear_1249_2)"/>
<path d="M308.047 9.3322C303.486 4.55284 297.481 1.40436 290.955 0.371032C284.43 -0.662299 277.746 0.476758 271.931 3.61298L6.91895 146.91C6.91895 146.91 79.2782 126.466 126.517 114.522C250.76 82.9238 283.022 79.5428 283.022 79.5428C283.022 79.5428 324.288 228.938 328.523 245.179C330.545 252.194 334.842 267.93 334.842 267.93C334.842 267.93 379.079 289.069 398.575 299.528C392.824 280.569 327.385 65.1973 315.157 24.4044C313.809 18.9589 311.392 13.8357 308.047 9.3322Z" fill="url(#paint4_linear_1249_2)"/>
<path d="M363.503 298.548C363.649 298.246 363.856 297.978 364.111 297.761C364.365 297.543 364.662 297.38 364.982 297.282C365.302 297.184 365.64 297.153 365.972 297.192C366.305 297.23 366.626 297.337 366.916 297.505C372.382 300.286 388.718 308.438 422.465 324.648C444.994 335.486 467.713 345.502 495.33 360.037C513.341 369.517 516.785 384.557 495.33 386.264C462.752 388.855 416.335 393.089 381.388 397.513C342.301 402.473 319.108 405.949 307.986 407.75C304.826 408.256 301.382 406.234 304.289 401.178C320.056 373.846 346.504 343.354 363.503 298.548Z" fill="url(#paint5_linear_1249_2)"/>
<defs>
<linearGradient id="paint0_linear_1249_2" x1="360.056" y1="-90.5808" x2="406.853" y2="245.021" gradientUnits="userSpaceOnUse">
<stop stop-color="#0D90A7"/>
<stop offset="0.25" stop-color="#17ACBB"/>
<stop offset="0.52" stop-color="#20C2CC"/>
<stop offset="0.78" stop-color="#25D0D6"/>
<stop offset="1" stop-color="#27D5D9"/>
</linearGradient>
<linearGradient id="paint1_linear_1249_2" x1="276.45" y1="344.049" x2="47.3337" y2="327.902" gradientUnits="userSpaceOnUse">
<stop stop-color="#A8210A"/>
<stop offset="0.1" stop-color="#B7310F"/>
<stop offset="0.29" stop-color="#CD4815"/>
<stop offset="0.49" stop-color="#DD581A"/>
<stop offset="0.71" stop-color="#E6621D"/>
<stop offset="1" stop-color="#E9651E"/>
</linearGradient>
<linearGradient id="paint2_linear_1249_2" x1="195.875" y1="402.252" x2="434.692" y2="315.137" gradientUnits="userSpaceOnUse">
<stop stop-color="#FA8C14"/>
<stop offset="0.2" stop-color="#FBA10C"/>
<stop offset="0.44" stop-color="#FCB305"/>
<stop offset="0.7" stop-color="#FDBE01"/>
<stop offset="1" stop-color="#FDC100"/>
</linearGradient>
<linearGradient id="paint3_linear_1249_2" x1="36.0234" y1="163.467" x2="259.358" y2="163.467" gradientUnits="userSpaceOnUse">
<stop stop-color="#0D90A7"/>
<stop offset="0.25" stop-color="#17ACBB"/>
<stop offset="0.52" stop-color="#20C2CC"/>
<stop offset="0.78" stop-color="#25D0D6"/>
<stop offset="1" stop-color="#27D5D9"/>
</linearGradient>
<linearGradient id="paint4_linear_1249_2" x1="399.681" y1="278.926" x2="-26.2906" y2="-74.4337" gradientUnits="userSpaceOnUse">
<stop stop-color="#1688A6"/>
<stop offset="0.19" stop-color="#14839F"/>
<stop offset="0.47" stop-color="#12809A"/>
</linearGradient>
<linearGradient id="paint5_linear_1249_2" x1="321.889" y1="353.181" x2="500.986" y2="345.092" gradientUnits="userSpaceOnUse">
<stop stop-color="#0D90A7"/>
<stop offset="0.16" stop-color="#13A0B3"/>
<stop offset="0.49" stop-color="#1EBDC8"/>
<stop offset="0.79" stop-color="#25CFD4"/>
<stop offset="1" stop-color="#27D5D9"/>
</linearGradient>
</defs>
</svg>
